<?xml version="1.0" encoding="UTF-8"?>
<svg id="Layer_1" xmlns="http://www.w3.org/2000/svg" version="1.1" viewBox="0 0 458.64 154.77">
  <!-- Generator: Adobe Illustrator 30.2.1, SVG Export Plug-In . SVG Version: 2.1.1 Build 1)  -->
  <defs>
    <style>
      .st0 {
        fill: #16213d;
      }

      .st1 {
        fill: #fff;
      }

      .st2 {
        fill: #231f20;
      }

      .st3 {
        isolation: isolate;
      }

      .st4 {
        fill: #3b82f6;
      }

      .st5 {
        fill: #16213d;
      }
    </style>
  </defs>
  <g class="st3">
    <g id="Layer_11">
      <g>
        <g>
          <path class="st4" d="M126.89,102.79c-2.6-3-6.24-4.59-9.95-4.38-.21.01-.42.03-.63.05-.03,0-.06,0-.09.01-3.54.42-5.73,2.34-6.79,3.26-.38.33-.63.55-1.01.8-3.42-1.94-9.53-5.42-16.74-9.55,3.48-3.99,6.4-10.12,6.61-16.7.11-3.56-.85-13.51-3.63-19.06-.38-1.19-1.14-3.26-2.89-5.46-.51-.64-1.08-1.23-1.73-1.79.15-.7.23-1.42.23-2.16v-.26c0-1.95-.39-6.52-3.62-10.18-5.1-7.5-11.63-8.96-16.24-8.86-10.42.24-15.89,5.94-17.87,11.98-2.48.86-4.06,2.1-5.38,3.37,0,0-.02.02-.04.03s-.04.02-.07.04c-.82.4-1.06.48-1.44.59-1.45.43-3.06.99-5.37,2.63-4.12,2.92-5.34,6.72-5.86,8.55-2.08,3.73-2.09,7.68-1.85,10.15,0,.04-.02.09-.04.13-.02.06-.03.13-.05.19-1.56,1.98-2.34,4.54-2.1,7.23-.02.24-.11.8-.4,1.55-.66,1.71-2.67,6.92.2,12.34.54,1.01,1.29,2.12,2.35,3.16-1.01,2.23-1.56,3.63-1.97,4.72-.42,1.13-.68,2.3-.77,3.49-.29.62-.54,1.25-.75,1.9-2.32,2.67-3.88,5.68-4.63,9.01-.27,1.2-.65,2.24-1.04,3.35-.02.05-.03.1-.05.14-2.44.97-5.85,2.61-7.96,6.32-1.27,2.23-1.78,4.49-1.97,6.22l-1.24,4.24c-1.23,4.2.31,8.86,3.87,11.69,3.56,2.83,8.38,3.25,12.12,1.05l1.36-.8c.48.58,1.03,1.12,1.64,1.61,1.89,1.51,4.15,2.35,6.41,2.46,1.93.1,3.86-.33,5.57-1.29l4.51-2.53c2.14-.84,5.56-2.63,8.43-6.19.41-.5.62-.71,1.01-1.09.73-.71,1.79-1.73,2.92-3.46.68-.85,1.29-1.77,1.83-2.74,1.66-1.69,4.42-4.69,7.31-8.55,2.01-2.68,3.46-4.9,4.48-6.93.71-.6,1.36-1.29,1.93-2.04.33-.08.66-.17.99-.28,12.95,7.4,26.69,15.2,27.67,15.72,2.55,1.35,5.48,1.87,8.5,1.49,3.28-.4,6.19-1.8,8.05-2.9,8.01-4.73,8.99-9.07,9.31-10.5.9-3.99-.31-8.5-3.16-11.78h.03,0Z"/>
          <path class="st4" d="M38.06,153.34c-.3,0-.6,0-.91-.02-3.12-.16-6.11-1.09-8.76-2.72-5.69,1.82-12.17.68-17.06-3.21-5.98-4.76-8.48-12.47-6.39-19.65l1.07-3.67c.42-3.01,1.37-5.83,2.81-8.38,2.28-4.02,5.44-6.45,8.32-8.02.94-3.97,2.71-7.63,5.29-10.89,0-.02.02-.05.03-.07.21-1.42.56-2.81,1.06-4.15.11-.31.25-.66.4-1.06-.13-.23-.26-.46-.39-.7-2.91-5.49-3.15-11.59-.72-18.15-.04-3.05.7-6.02,2.12-8.65-.03-4.03.81-7.83,2.47-11.13.77-2.5,2.76-7.76,8.5-11.83,2.89-2.04,5.15-2.95,7.15-3.57.99-.85,2.19-1.75,3.69-2.57,4.15-8.5,12.69-13.62,23.48-13.87,8.98-.21,16.9,3.98,22.35,11.76,4.36,5.17,5.13,11.15,5.17,14.47,2.31,2.96,3.39,5.77,3.86,7.16,3.39,7.23,4.28,18.13,4.16,22.1-.15,4.68-1.4,9.51-3.53,13.89,2.07,1.18,3.97,2.26,5.62,3.21,1.85-1.11,4.34-2.19,7.47-2.56l.24-.03c.26-.03.61-.06.95-.08,6.04-.34,11.88,2.18,16.01,6.94,4.38,5.04,6.22,12.06,4.81,18.32-1.35,6-5.54,11-12.8,15.3-2.47,1.46-6.38,3.32-10.95,3.88-4.54.56-9.01-.24-12.92-2.31-1.06-.56-12.21-6.9-22.61-12.83-.85,1.31-1.83,2.71-2.97,4.24-2.75,3.66-5.38,6.61-7.29,8.6-.54.9-1.13,1.76-1.77,2.57-1.52,2.27-2.99,3.69-3.79,4.46-.18.17-.31.31-.39.4-3.63,4.5-7.9,6.95-11,8.24l-4.1,2.3c-2.65,1.49-5.64,2.26-8.7,2.26l.02.02h0ZM31.16,132.11l4.07,4.88c.17.2.36.39.57.56.62.49,1.37.79,2.11.83.39.02.97-.02,1.54-.34l4.97-2.79.48-.19c1.19-.47,3.46-1.59,5.33-3.91.7-.87,1.18-1.33,1.64-1.77.61-.59,1.18-1.14,1.85-2.16l.42-.58c.42-.52.8-1.09,1.13-1.7l.49-.88.71-.72c1.32-1.35,3.95-4.16,6.68-7.81,1.75-2.34,2.99-4.23,3.78-5.8l.68-1.35,1.15-.98c.3-.26.59-.56.84-.89l1.61-2.11,2.57-.63c.17-.04.34-.09.52-.14l3.12-.98,2.84,1.62c13.51,7.72,26.49,15.09,27.47,15.62,1.17.62,2.58.86,4.06.67,1.57-.19,3.4-.87,5.16-1.92,1.95-1.15,5.31-3.43,5.82-5.7.37-1.66-.23-3.76-1.51-5.23h0c-1.07-1.23-2.49-1.9-3.86-1.81-.09,0-.17.01-.25.02-1.26.15-2.06.85-2.77,1.47-.47.41-1.05.92-1.89,1.46l-3.8,2.44-3.93-2.23c-3.42-1.94-9.55-5.43-16.77-9.57l-7.9-4.53,5.98-6.87c2.21-2.53,4.62-7.02,4.77-12.02.1-3.17-.93-11.66-2.84-15.48l-.26-.52-.18-.55c-.26-.82-.69-1.92-1.62-3.09-.23-.29-.47-.53-.75-.77l-3.38-2.9.93-4.35c.04-.19.06-.39.06-.59v-.26c0-.76-.13-3.39-1.74-5.22l-.31-.35-.27-.39c-2.62-3.85-5.87-5.68-9.89-5.59-7.23.17-9.93,3.81-10.92,6.83l-1.15,3.52-3.5,1.22c-1.14.4-1.82.9-2.64,1.68l-.9.83-1.03.54c-1.24.61-1.87.84-2.68,1.09-.87.26-1.69.5-3.19,1.57-1.88,1.33-2.55,2.95-2.99,4.5l-.24.83-.42.75c-.85,1.52-1.16,3.47-.94,5.8l.13,1.35-.77,3.02-1.01,1.29c-.4.51-.59,1.2-.52,1.94l.06.7-.07.7c-.08.78-.29,2.02-.86,3.52-.71,1.85-1.29,4.03-.17,6.14.26.49.59.94.98,1.32l3.73,3.66-2.15,4.76c-.96,2.14-1.45,3.4-1.77,4.25-.18.48-.29.97-.33,1.48l-.11,1.34-.56,1.22c-.17.36-.31.73-.43,1.1l-.47,1.44-.99,1.14c-1.52,1.74-2.49,3.62-2.97,5.74-.37,1.65-.86,3.02-1.3,4.22l-1.22,3.34-3.11,1.23c-1.66.66-3.32,1.49-4.21,3.06-.69,1.22-.95,2.5-1.05,3.36l-.07.65-1.42,4.86c-.37,1.27.18,2.81,1.35,3.74,1.13.9,2.6,1.08,3.66.45l6.84-4.02-.02-.06h0Z"/>
        </g>
        <path class="st4" d="M291.99,9.72l-34.45,2.3h0l-88.46,6.04h0l-81.14,6.35c-9.27.66-17.37,4.82-24.07,10.14l-.14-1.03c-6.87,5.56-11.53,14.09-13.85,23.11l-13.16,52.56c-3.96,16.13,2.5,26.17,6.66,30.68,3.93,4.27,11.05,9.48,22.67,10.06,1.99.1,4.1.06,6.25-.12l97.25-9.63h0l92.3-7.24,1.23-5.03c3.69,1.84,8.3,3.22,13.99,3.52,1.98.1,4.07.07,6.21-.09l35.22-2.7c18.54-1.41,31.84-12.6,36.48-30.71l.04-.17,3.59-15.16,10.1-.72h0l53.81-3.81c13.25-.93,23.07-8.92,26.29-21.37l.04-.15,1.78-7.39.07-.37c.42-2.14.57-4.13.51-5.98.31-.89.55-1.74.73-2.55l1.64-6.81c2.26-8.93-.08-17.69-6.39-24.02-3.29-3.32-9.09-7.41-18.06-7.98-1.41-.09-2.89-.09-4.37,0l-40.57,2.6v.03l-23.17,1.5h0l-23.57,1.44-45.46,2.66v.04h0Z"/>
        <g>
          <path class="st2" d="M98.29,57.03c1.28-4.97,3.77-8.95,7.45-11.92,3.66-2.89,8.13-4.53,13.41-4.91l52.77-3.76-4.82,19.16-45.07,3.28-9.14,36.25-2.15,8.39,24.97-1.92,2.09-8.37-14.55,1.11,4.88-19.25,35.67-2.65-11.94,46.88-53.73,4.22c-5.4.43-9.21-.57-11.44-2.98-2.27-2.45-2.77-6.25-1.51-11.39l13.11-52.14h0Z"/>
          <path class="st2" d="M189.56,58.12c.3-1.16.12-2.13-.56-2.91-.63-.75-1.57-1.08-2.82-.99l-6.57.47,4.88-19.14,35.67-2.5-9.25,35.93,20.27-1.47,9.2-35.86,23.67-1.63-20.07,82.21-24.63,1.88,6.95-27.51-20.21,1.5-6.95,27.56-24.63,1.9,15.06-59.44h0Z"/>
          <path class="st2" d="M337.04,77.13l-3.13,13.23c-2.65,10.32-9.07,15.86-19.26,16.62l-35.22,2.63c-5.4.41-9.21-.6-11.45-3.03-2.28-2.46-2.78-6.2-1.51-11.22l13.11-51.31c1.25-4.89,3.73-8.8,7.45-11.72,3.65-2.88,8.12-4.49,13.4-4.85l32.16-2.17c5.47-.37,9.38.64,11.72,3.02,2.43,2.45,3,6.14,1.73,11.08l-3.24,13.66-23.39,1.63,2.69-9.73-18.74,1.3-11.33,43.6,19.53-1.43,2.75-9.69,22.71-1.63h.02Z"/>
          <path class="st2" d="M355.48,60.94l6.92-26.81c.14-.52.06-.95-.25-1.29s-.74-.49-1.29-.45l-2.64.18,2.21-8.63,26.37-1.75c2.51-.17,4.3.3,5.37,1.38,1.11,1.1,1.37,2.79.79,5.06l-5.56,23.22c-1.2,4.67-4.14,7.16-8.83,7.49l-23.08,1.61h-.01ZM381.58,31l-8.25.55-4.78,19.95,7.88-.54,5.14-19.96h0Z"/>
          <path class="st2" d="M394.67,58.22l6.89-26.71c.14-.54.05-.97-.26-1.31-.29-.34-.72-.49-1.29-.45l-2.64.18,2.23-8.6,26.71-1.75c2.51-.16,4.3.3,5.37,1.38,1.11,1.12,1.37,2.8.79,5.04l-1.72,7.14c-.31,1.55-1.43,2.91-3.37,4.09.88.55,1.46,1.06,1.75,1.51.48.8.56,1.96.26,3.47l-1.65,6.89c-1.2,4.65-4.22,7.14-9.06,7.47l-24.01,1.65ZM409.07,43.25l-1.36,5.58,8.89-.6,1.41-5.58-8.95.6h0ZM420.1,33.87l1.47-5.37-9.02.6-1.37,5.34,8.92-.57h0Z"/>
        </g>
        <g>
          <path class="st0" d="M99.28,128.96c-3.7-.19-6.49-1.28-8.29-3.24-2.4-2.6-2.96-6.61-1.65-11.92l13.11-52.14c1.31-5.06,3.88-9.17,7.63-12.2,3.73-2.95,8.34-4.64,13.71-5.03l53.6-3.82-5.11,20.31-45.07,3.29-9.05,35.88-1.94,7.59,23.75-1.83,1.8-7.21-14.55,1.11,5.17-20.41,36.89-2.74-12.24,48.03-54.12,4.26c-1.29.1-2.52.13-3.63.07h0Z"/>
          <path class="st0" d="M193.72,62.74c.26-.98.12-1.76-.43-2.39-.41-.48-.98-.74-1.73-.78h-.59l-7.4.53,5.17-20.29,36.89-2.59-9.25,35.93,19.06-1.38,9.2-35.86,24.87-1.72-20.35,83.34-25.85,1.97,6.95-27.51-19,1.41-6.95,27.56-25.84,2,15.26-60.22h0Z"/>
          <path class="st0" d="M280.63,114.99c-3.72-.2-6.53-1.3-8.34-3.28-2.41-2.6-2.96-6.55-1.65-11.74l13.11-51.31c1.27-4.98,3.84-9.02,7.63-11.99,3.72-2.93,8.33-4.6,13.7-4.96l32.16-2.18c1.33-.09,2.59-.1,3.74-.03,3.73.23,6.58,1.32,8.46,3.23,2.57,2.59,3.2,6.5,1.88,11.62l-3.32,14.02-24.62,1.72,2.69-9.73-17.51,1.22-11.04,42.45,18.33-1.34,2.75-9.69,23.89-1.72-3.31,13.99c-2.7,10.52-9.34,16.25-19.74,17.02l-35.22,2.64c-1.28.1-2.49.12-3.59.06Z"/>
          <path class="st0" d="M366.56,38.73c.12-.45,0-.65-.12-.77-.09-.1-.25-.23-.59-.25h-.21l-3.47.23,2.5-9.76,26.76-1.78c.62-.04,1.21-.05,1.75-.01,1.79.11,3.17.64,4.09,1.58,1.26,1.25,1.58,3.13.95,5.59l-5.56,23.21c-1.26,4.89-4.39,7.54-9.31,7.88l-23.91,1.67,7.12-27.58h0ZM374,55.66l6.68-.46,4.85-18.83-7.03.47-4.51,18.82s.01,0,.01,0Z"/>
          <path class="st0" d="M405.72,36.1c.12-.46-.01-.68-.12-.79-.09-.1-.23-.23-.57-.25h-.23l-3.47.23,2.53-9.73,27.09-1.78c.62-.04,1.21-.04,1.75-.01,1.79.11,3.17.64,4.09,1.57,1.26,1.27,1.58,3.14.95,5.57l-1.72,7.13c-.3,1.47-1.28,2.81-2.92,3.96.57.42.98.83,1.23,1.22.56.95.67,2.21.34,3.87l-1.66,6.9c-1.26,4.87-4.47,7.52-9.54,7.86l-24.84,1.71,7.09-27.48v.02h0ZM413.16,52.98l7.69-.52,1.13-4.45-7.73.52-1.09,4.45ZM416.63,38.59l7.72-.49,1.16-4.24-7.8.52-1.08,4.22h0Z"/>
        </g>
        <g>
          <path class="st1" d="M98.29,57.03c1.28-4.97,3.77-8.95,7.45-11.92,3.66-2.89,8.13-4.53,13.41-4.91l52.77-3.76-4.82,19.16-45.07,3.28-9.14,36.25-2.15,8.39,24.97-1.92,2.09-8.37-14.55,1.11,4.88-19.25,35.67-2.65-11.94,46.88-53.73,4.22c-5.4.43-9.21-.57-11.44-2.98-2.27-2.45-2.77-6.25-1.51-11.39l13.11-52.14h0Z"/>
          <path class="st1" d="M189.56,58.12c.3-1.16.12-2.13-.56-2.91-.63-.75-1.57-1.08-2.82-.99l-6.57.47,4.88-19.14,35.67-2.5-9.25,35.93,20.27-1.47,9.2-35.86,23.67-1.63-20.07,82.21-24.63,1.88,6.95-27.51-20.21,1.5-6.95,27.56-24.63,1.9,15.06-59.44h0Z"/>
          <path class="st1" d="M337.04,77.13l-3.13,13.23c-2.65,10.32-9.07,15.86-19.26,16.62l-35.22,2.63c-5.4.41-9.21-.6-11.45-3.03-2.28-2.46-2.78-6.2-1.51-11.22l13.11-51.31c1.25-4.89,3.73-8.8,7.45-11.72,3.65-2.88,8.12-4.49,13.4-4.85l32.16-2.17c5.47-.37,9.38.64,11.72,3.02,2.43,2.45,3,6.14,1.73,11.08l-3.24,13.66-23.39,1.63,2.69-9.73-18.74,1.3-11.33,43.6,19.53-1.43,2.75-9.69,22.71-1.63h.02Z"/>
          <path class="st1" d="M355.48,60.94l6.92-26.81c.14-.52.06-.95-.25-1.29s-.74-.49-1.29-.45l-2.64.18,2.21-8.63,26.37-1.75c2.51-.17,4.3.3,5.37,1.38,1.11,1.1,1.37,2.79.79,5.06l-5.56,23.22c-1.2,4.67-4.14,7.16-8.83,7.49l-23.08,1.61h-.01ZM381.58,31l-8.25.55-4.78,19.95,7.88-.54,5.14-19.96h0Z"/>
          <path class="st1" d="M394.67,58.22l6.89-26.71c.14-.54.05-.97-.26-1.31-.29-.34-.72-.49-1.29-.45l-2.64.18,2.23-8.6,26.71-1.75c2.51-.16,4.3.3,5.37,1.38,1.11,1.12,1.37,2.8.79,5.04l-1.72,7.14c-.31,1.55-1.43,2.91-3.37,4.09.88.55,1.46,1.06,1.75,1.51.48.8.56,1.96.26,3.47l-1.65,6.89c-1.2,4.65-4.22,7.14-9.06,7.47l-24.01,1.65ZM409.07,43.25l-1.36,5.58,8.89-.6,1.41-5.58-8.95.6h0ZM420.1,33.87l1.47-5.37-9.02.6-1.37,5.34,8.92-.57h0Z"/>
        </g>
        <path class="st5" d="M32.81,130.29c.98-.79,1.64-1.19,2.21-1.55.85-.52,1.52-.93,2.61-2.22.2-.24.41-.48.61-.71,1.07-1.23,2.17-2.49,2.34-3.68.88-.84,1.97-1.94,2.71-2.88,1.59-2.02,3.68-4.83,4.67-7.3,2.49-1.5,4.2-3.55,4.92-5.3.07-.03.14-.06.22-.1-1.53,2.98-3.13,6.78-3.61,8.23-.39,1.19-.92,2.07-1.44,2.92-.55.91-1.12,1.84-1.49,3.11-.03.11-.04.22-.02.32-.34.56-.65,1.16-.95,1.76-.63,1.23-1.22,2.4-2.04,3.04-.44.34-.97.69-1.48,1.03-1.4.93-2.86,1.9-3.22,3.1-.39,1.28-.14,2.54-.04,2.95l-1.21,4.32,5.24-2.94c.45-.13,2.9-.96,4.83-3.35.79-.98,1.35-1.52,1.84-1.99.62-.6,1.13-1.09,1.75-2.15.84-.95,1.38-1.97,1.72-2.78.77-.74,4.04-3.96,7.54-8.64,2.61-3.48,3.98-5.84,4.43-7.78,1.2-.29,1.95-.95,2.47-1.99.16-.05.31-.15.41-.3.49-.67,1.1-1.57,1.6-2.53.18.05.37.08.57.11.51.06,1.07.06,1.61,0,1.08-.13,2.09-.48,2.52-.94.42-.45.85-1.05,1.3-1.79,15.8,9.06,32.61,18.62,33.44,19.06.56.3,1.26.36,2.01.27,1.35-.17,2.88-.84,4.1-1.56,1.9-1.12,4.46-3.05,4.7-4.16.25-1.11-.63-2.82-1.52-2.77h-.06c-.86.1-1.53,1.39-4.12,2.9-1.66.97-3.34,1.71-4.83,1.89-.9.11-1.73.02-2.44-.35-.95-.49-15.74-8.91-30.23-17.24.19-.38.38-.78.58-1.21.35-.77.86-1.41,1.31-1.98.81-1.02,1.63-2.07.96-3.37.14-.13.27-.27.41-.41.7-.7,1.42-1.42,2.24-1.99,2.28-1.59,5.53-6.6,5.69-11.86.16-5.15-1.74-12.95-2.48-13.92-.27-.35-.4-.77-.55-1.25-.2-.64-.43-1.37-1.04-2.14-.84-1.05-5.22-2.56-7.5-3.3,0-.09.05-.18.17-.36.22-.34.41-.45.57-.54.51-.3.64-.63.5-1.27-.06-.27-.15-.57-.24-.89-.17-.58-.43-1.46-.3-1.77.03-.06.15-.21.25-.32.26-.3.61-.72.72-1.26.54-.26,1.09-.59,1.65-.99l.22-.16v-.26c0-.22-.03-2.21-.98-3-.13-.11-.34-.43-.56-.76-.95-1.44-2.71-4.12-6.77-4.02-6.55.16-8.45,3.55-8.89,6.38-.2,1.3-.21,3.07.02,4.62-1.29-.13-2.79-.17-4.24.05-2.12.32-2.7.88-3.44,1.58-.52.5-1.11,1.06-2.52,1.76-1.58.78-2.37,1.02-3.01,1.21-.75.23-1.3.39-2.48,1.22-1.48,1.05-1.84,2.3-2.15,3.41-.17.59-.32,1.15-.64,1.62-1.09,1.64-.94,3.77-.65,5.63.07.43.02.94-.09,1.5-.07.18-.15.36-.22.54-.08.18-.11.37-.17.55-.05.18-.08.36-.1.53v.1c-.16.47-.34.95-.52,1.42l-.21.56c-.13.36-.22.64-.27.87-.13.06-.27.12-.4.19l-.34.17.04.36s.23,2.48-1.08,5.87c-.65,1.7-.78,2.76-.42,3.44.38.71,1.19.84,1.97.96l.18.03c.85.14,1.29.39,2.02.81.48.28,1.08.63,1.98,1.04.65.3,1.28.38,1.85.31.33-.04.64-.13.94-.24-1.43,1.31-2.88,2.72-4.02,5.06-2.41,4.97-3.31,7.18-3.87,8.68-.3.82-.18,1.58.15,2.28-1.69,2.07-1.86,3.84-1.92,4.62-2.17,1.85-3.48,3.88-4,6.19-.41,1.8-.93,3.26-1.39,4.54-.3.82-.57,1.6-.77,2.33l-.03.13.03.12v.03c-.29.31-.53.61-.75.89-.5.63-.89,1.13-1.81,1.55-.5.23-1.08.45-1.64.67-1.55.59-3.15,1.2-3.78,2.31-.71,1.25-.76,2.65-.76,3.01l-1.55,5.3,5.07-2.98c.59-.04,3-.32,5.29-2.17,0,0,.07-.03.07-.03ZM53.88,70.5c.11.51.19.91.15,1.31-.08.82-.25,1.14-.93,2.47-.18.35-.39.76-.64,1.26-.53,1.06-.9,2.48-1.16,3.87-.29-.76-.58-1.51-.62-1.92-.04-.35.11-.86.25-1.36.23-.82.47-1.67-.08-2.1-.13-.1-.33-.19-.6-.28.34-1.14.85-1.78,1.23-2.25l.07-.08c.39-.48.65-1.23.9-1.96.16-.45.31-.88.46-1.18.14-.27.45-.4.72-.46-.07,1.16.11,1.99.25,2.67h0Z"/>
        <path class="st1" d="M29.72,126.09c.98-.79,1.64-1.19,2.21-1.55.85-.52,1.52-.93,2.61-2.22.2-.24.41-.48.61-.71,1.07-1.23,2.17-2.49,2.34-3.68.88-.84,1.97-1.94,2.71-2.88,1.59-2.02,3.68-4.83,4.67-7.3,2.49-1.5,4.2-3.55,4.92-5.3.07-.03.14-.06.22-.1-1.53,2.98-3.13,6.78-3.61,8.23-.39,1.19-.92,2.07-1.44,2.92-.55.91-1.12,1.84-1.49,3.11-.03.11-.04.22-.02.32-.34.56-.65,1.16-.95,1.76-.63,1.23-1.22,2.4-2.04,3.04-.44.34-.97.69-1.48,1.03-1.4.93-2.86,1.9-3.22,3.1-.39,1.28-.14,2.54-.04,2.95l-1.21,4.32,5.24-2.94c.45-.13,2.9-.96,4.83-3.35.79-.98,1.35-1.52,1.84-1.99.62-.6,1.13-1.09,1.75-2.15.84-.95,1.38-1.97,1.72-2.78.77-.74,4.04-3.96,7.54-8.64,2.61-3.48,3.98-5.84,4.43-7.78,1.2-.29,1.95-.95,2.47-1.99.16-.05.31-.15.41-.3.49-.67,1.1-1.57,1.6-2.53.18.05.37.08.57.11.51.06,1.07.06,1.61,0,1.08-.13,2.09-.48,2.52-.94.42-.45.85-1.05,1.3-1.79,15.8,9.06,32.61,18.62,33.44,19.06.56.3,1.26.36,2.01.27,1.35-.17,2.88-.84,4.1-1.56,1.9-1.12,4.46-3.05,4.7-4.16.25-1.11-.63-2.82-1.52-2.77h-.06c-.86.1-1.53,1.39-4.12,2.9-1.66.97-3.34,1.71-4.83,1.89-.9.11-1.73.02-2.44-.35-.95-.49-15.74-8.91-30.23-17.24.19-.38.38-.78.58-1.21.35-.77.86-1.41,1.31-1.98.81-1.02,1.63-2.07.96-3.37.14-.13.27-.27.41-.41.7-.7,1.42-1.42,2.24-1.99,2.28-1.59,5.53-6.6,5.69-11.86.16-5.15-1.74-12.95-2.48-13.92-.27-.35-.4-.77-.55-1.25-.2-.64-.43-1.37-1.04-2.14-.84-1.05-5.22-2.56-7.5-3.3,0-.09.05-.18.17-.36.22-.34.41-.45.57-.54.51-.3.64-.63.5-1.27-.06-.27-.15-.57-.24-.89-.17-.58-.43-1.46-.3-1.77.03-.06.15-.21.25-.32.26-.3.61-.72.72-1.26.54-.26,1.09-.59,1.65-.99l.22-.16v-.26c0-.22-.03-2.21-.98-3-.13-.11-.34-.43-.56-.76-.95-1.44-2.71-4.12-6.77-4.02-6.55.16-8.45,3.55-8.89,6.38-.2,1.3-.21,3.07.02,4.62-1.29-.13-2.79-.17-4.24.05-2.12.32-2.7.88-3.44,1.58-.52.5-1.11,1.06-2.52,1.76-1.58.78-2.37,1.02-3.01,1.21-.75.23-1.3.39-2.48,1.22-1.48,1.05-1.84,2.3-2.15,3.41-.17.59-.32,1.15-.64,1.62-1.09,1.64-.94,3.77-.65,5.63.07.43.02.94-.09,1.5-.07.18-.15.36-.22.54-.08.18-.11.37-.17.55-.05.18-.08.36-.1.53v.1c-.16.47-.34.95-.52,1.42l-.21.56c-.13.36-.22.64-.27.87-.13.06-.27.12-.4.19l-.34.17.04.36s.23,2.48-1.08,5.87c-.65,1.7-.78,2.76-.42,3.44.38.71,1.19.84,1.97.96l.18.03c.85.14,1.29.39,2.02.81.48.28,1.08.63,1.98,1.04.65.3,1.28.38,1.85.31.33-.04.64-.13.94-.24-1.43,1.31-2.88,2.72-4.02,5.06-2.41,4.97-3.31,7.18-3.87,8.68-.3.82-.18,1.58.15,2.28-1.69,2.07-1.86,3.84-1.92,4.62-2.17,1.85-3.48,3.88-4,6.19-.41,1.8-.93,3.26-1.39,4.54-.3.82-.57,1.6-.77,2.33l-.03.13.03.12v.03c-.29.31-.53.61-.75.89-.5.63-.89,1.13-1.81,1.55-.5.23-1.08.45-1.64.67-1.55.59-3.15,1.2-3.78,2.31-.71,1.25-.76,2.65-.76,3.01l-1.55,5.3,5.07-2.98c.59-.04,3-.32,5.29-2.17,0,0,.07-.03.07-.03ZM50.79,66.3c.11.51.19.91.15,1.31-.08.82-.25,1.14-.93,2.47-.18.35-.39.76-.64,1.26-.53,1.06-.9,2.48-1.16,3.87-.29-.76-.58-1.51-.62-1.92-.04-.35.11-.86.25-1.36.23-.82.47-1.67-.08-2.1-.13-.1-.33-.19-.6-.28.34-1.14.85-1.78,1.23-2.25l.07-.08c.39-.48.65-1.23.9-1.96.16-.45.31-.88.46-1.18.14-.27.45-.4.72-.46-.07,1.16.11,1.99.25,2.67h0Z"/>
      </g>
    </g>
  </g>
</svg>